<svg width="73" height="48" viewBox="0 0 73 48" fill="none" xmlns="http://www.w3.org/2000/svg">
<path d="M72.1729 16.0201L36.6156 0.0655187C36.5956 0.0564986 36.5755 0.049483 36.5555 0.0424673C36.5525 0.0414651 36.5495 0.0394606 36.5455 0.0384584C36.5174 0.0294383 36.4893 0.0214204 36.4613 0.0164093C36.4553 0.015407 36.4482 0.0144048 36.4422 0.0134026C36.4202 0.00939362 36.3981 0.00638692 36.3751 0.00438245C36.3671 0.00438245 36.3591 0.00338022 36.351 0.00237798C36.329 0.00137575 36.3079 0.000373515 36.2859 0.00237798C36.2789 0.00237798 36.2709 0.00237798 36.2638 0.00237798C36.2358 0.00438245 36.2067 0.00638692 36.1786 0.0113981C36.1506 0.0164093 36.1235 0.0234249 36.0965 0.0314428C36.0884 0.0334472 36.0794 0.0364539 36.0714 0.0394606C36.0524 0.045474 36.0323 0.0534919 36.0133 0.0615098C36.0083 0.0635143 36.0033 0.0645165 35.9982 0.0675232L0.44399 16.0201C0.173386 16.1414 0 16.41 0 16.7056V47.2487C0 47.6636 0.336751 48.0004 0.751676 48.0004H36.3079C36.7229 48.0004 37.0596 47.6636 37.0596 47.2487V1.91264L71.1125 17.1927V47.2487C71.1125 47.6636 71.4493 48.0004 71.8642 48.0004C72.2791 48.0004 72.6159 47.6636 72.6159 47.2487V16.7066C72.6159 16.411 72.4425 16.1424 72.1719 16.0211L72.1729 16.0201Z" fill="#0093FF"/>
</svg>
